PathFileType	4	(X/Y/Z)	Walk9.trc
DataRate	CameraRate	NumFrames	NumMarkers	Units	OrigDataRate	OrigDataStartFrame	OrigNumFrames
200.000000	200.000000	9	56	mm	200.000000	238	502
Frame#	Times		RBHD		C7		RBack		RASI		RACR1		RUA1		RElbow		RFA1		RWRR		RCAR		LACR1		LElbow		LElbowM		LFA1		RTH1		RTH3		RTH2		RTH4		RLFC		RTB3		RTB2		RTB4		RMT1		RMT5		LTH3		LTH2		LWRU		LTH4		LPSI		CLAV		RPSI		LLFC		LTB1		LBHD		T10		LTB4		RWRU		LTB2		LMT1		LTH1		LWRR		LFHD		RFHD		LCAL		LLMAL		LMT5		RElbowM		LToe		LTB3		LMMAL		RCAL		RToe		LUA1		RLMAL		RMMAL		LCAR
			X1	Y1	Z1	X2	Y2	Z2	X3	Y3	Z3	X4	Y4	Z4	X5	Y5	Z5	X6	Y6	Z6	X7	Y7	Z7	X8	Y8	Z8	X9	Y9	Z9	X10	Y10	Z10	X11	Y11	Z11	X12	Y12	Z12	X13	Y13	Z13	X14	Y14	Z14	X15	Y15	Z15	X16	Y16	Z16	X17	Y17	Z17	X18	Y18	Z18	X19	Y19	Z19	X20	Y20	Z20	X21	Y21	Z21	X22	Y22	Z22	X23	Y23	Z23	X24	Y24	Z24	X25	Y25	Z25	X26	Y26	Z26	X27	Y27	Z27	X28	Y28	Z28	X29	Y29	Z29	X30	Y30	Z30	X31	Y31	Z31	X32	Y32	Z32	X33	Y33	Z33	X34	Y34	Z34	X35	Y35	Z35	X36	Y36	Z36	X37	Y37	Z37	X38	Y38	Z38	X39	Y39	Z39	X40	Y40	Z40	X41	Y41	Z41	X42	Y42	Z42	X43	Y43	Z43	X44	Y44	Z44	X45	Y45	Z45	X46	Y46	Z46	X47	Y47	Z47	X48	Y48	Z48	X49	Y49	Z49	X50	Y50	Z50	X51	Y51	Z51	X52	Y52	Z52	X53	Y53	Z53	X54	Y54	Z54	X55	Y55	Z55	X56	Y56	Z56

238	1.19	-331.95	1563.5	389.44	-362.28	1441	308.2	-428.79	1340.6	401.91	-260.99	951.56	412.98	-286.09	1373.9	445.91	-334.19	1182.1	518.39	-392.77	1060.4	541.3	-367.44	916.8	564.12	-321.53	778.48	525.19	-356.31	728.9	565.54	-328.88	1441.9	128.04	-401.68	1125	1.3641	-428.65	1123.1	77.58	-295.77	1002	-25.595	-288.58	741.28	463.54	-246	560.13	426.06	-201.9	671.48	419.37	-266.7	649.16	448.36	-226.96	459.78	407.61	-223.95	181.58	311.19	-216.28	272.31	389.1	-209.23	277.84	317.23	-138.28	39.391	264.59	-165.32	32.553	354.11	-282.72	551.93	101.02	-227.55	653.32	120.02	-295.11	883.68	-22.619	-298.98	639.89	91.756	-457.06	958.56	224.28	-233	1358.6	279.1	-450.76	964.97	329.49	-285.18	443.25	114.11	-314.91	343.36	174.11	-340.15	1581	252.61	-464.3	1134	277.99	-397.31	301.46	178.73	-393.29	786.23	556.26	-414.59	326.25	113.59	-567.28	92.974	229	-314.33	736.5	88.965	-228.61	908.87	17.826	-157.01	1608.1	268.36	-151.6	1604	350.07	-678.76	258.88	206.77	-619.58	246.63	157.42	-586.97	108.18	149.98	-421.95	1041.2	450.41	-537.3	67.096	206.49	-478.61	256.16	182.48	-584.77	227.55	241.11	-340.2	34.161	309.44	-85.78	36.251	287.48	-364.34	1253	22.895	-287.2	80.297	350.44	-264.94	97.897	262.93	-216.07	857.41	-30.114
239	1.195	-325.46	1564.9	389.67	-356.41	1442.4	308.28	-422.58	1342.2	402.51	-254.99	952.57	413.32	-279.93	1375.5	445.95	-325.78	1183.3	518.56	-383.11	1061	542.16	-355.63	917.77	564.57	-308.79	780.13	525.22	-342.16	730.07	565.77	-323.61	1443.3	127.88	-397.52	1126.3	1.6807	-424.59	1124.3	77.829	-292.61	1003	-25.598	-284.42	741.97	463.56	-243.95	560.29	426.28	-198.28	671.21	419.49	-263.33	649.64	448.84	-225.74	459.63	407.83	-223.85	181.63	311.16	-215.73	272.31	389.52	-208.89	277.76	317.56	-138.31	39.444	264.7	-165.27	32.457	354.2	-271.83	554.16	100.67	-218.28	656.4	119.44	-292.11	884.6	-22.601	-289.49	642.09	91.499	-450.71	960.12	224.25	-227.13	1360.3	279.01	-445.66	966.55	329.44	-272.36	445.68	113.92	-301.67	345.3	173.63	-333.51	1583	252.88	-457.89	1135.2	278.44	-383.34	303.27	178.15	-380.03	786.99	557.19	-401.13	328.24	113.36	-550.95	93.738	227.43	-306.38	738.29	88.788	-225.73	909.17	18.361	-150.37	1609.1	268.65	-144.79	1604.4	350.18	-665.01	258.37	206.83	-605.5	247.09	157.45	-570.84	109.45	148.83	-413.02	1041.8	451.47	-520.79	68.45	204.84	-464.23	257.68	181.84	-570.16	228.12	240.75	-340.21	34.247	309.44	-85.734	36.188	287.55	-359.88	1254.3	22.914	-287.05	80.298	350.64	-264.87	97.998	263.07	-213.41	857.51	-29.349
240	1.2	-319.13	1566.5	389.87	-350.39	1443.6	308.34	-416.3	1343.3	402.72	-249.37	953.76	413.5	-273.82	1377.2	445.77	-317.74	1184.5	518.84	-373.46	1062	543.07	-344.09	918.8	565.1	-295.58	781.84	525.41	-327.93	731.57	566.17	-318.21	1444.6	127.83	-393.22	1127.6	2.3104	-420.23	1125.9	78.312	-289.09	1003.8	-25.272	-280.58	742.45	463.65	-241.89	560.46	426.9	-195.04	670.85	419.94	-260.49	650.1	448.94	-224.43	459.58	408.04	-223.57	181.82	311.19	-215.29	272.19	389.8	-208.49	277.79	317.83	-138.33	39.47	264.8	-165.22	32.378	354.39	-260.9	556.39	100.21	-208.96	659.6	118.9	-289.5	885.55	-22.612	-279.9	644.18	90.991	-445.04	961.57	224.27	-221.29	1361.6	278.82	-439.57	968.06	329.61	-259.74	448.24	113.53	-288.13	347.37	172.87	-327.07	1584.8	253.02	-451.92	1136.6	278.7	-369.34	305.01	177.46	-366.82	787.6	557.87	-387.55	330.17	113.02	-534.27	94.391	225.85	-298.55	740.09	88.538	-223.09	909.53	18.709	-143.4	1609.9	268.87	-138.25	1604.9	350.44	-651.11	257.34	207.01	-591.19	247.22	157.34	-554.17	110.51	147.53	-404.3	1042.3	452.5	-503.75	69.695	203.21	-449.58	258.97	181.39	-555.41	228.2	240.76	-340.2	34.205	309.38	-85.742	36.122	287.61	-355.56	1255.7	22.908	-286.77	80.254	350.43	-264.94	98.147	263.28	-210.85	857.45	-28.597
241	1.205	-312.63	1568.1	390.07	-344.2	1445	308.49	-410.32	1344.5	402.77	-243.89	954.61	414.04	-267.66	1378.8	445.55	-309.61	1185.9	518.94	-363.78	1062.5	544.04	-332.13	919.92	565.27	-281.86	783.64	525.64	-313.5	733.05	566.68	-312.94	1445.8	127.87	-389.09	1129	2.9251	-415.89	1127.4	78.951	-285.46	1004.6	-24.844	-276.48	743.23	463.87	-240	560.53	427.18	-191.87	670.47	420.1	-257.74	650.64	449.4	-223.61	459.65	408.48	-223.47	181.88	311.25	-214.81	272.03	390.08	-208.11	277.87	317.99	-138.35	39.506	264.94	-165.16	32.342	354.56	-250.1	558.78	99.732	-199.56	662.55	118.25	-286.81	886.38	-22.572	-270.68	646.08	90.664	-439.05	962.95	224.16	-215.36	1363	278.46	-433.14	969.41	329.76	-247.35	450.94	113.02	-273.87	349.62	171.86	-320.4	1586.5	253.07	-445.88	1137.7	278.8	-355.02	306.32	176.83	-353.07	788.63	558.18	-374.08	332.14	112.4	-517.52	94.547	224.77	-290.64	741.76	88.369	-220.39	909.93	19.175	-137.06	1610.8	269.1	-131.43	1605.7	350.73	-636.84	255.8	207.08	-576.7	246.87	157.27	-537.38	111.35	146.46	-395.37	1042.6	453.4	-486.56	70.616	201.74	-435.32	259.73	180.99	-540.65	227.95	240.7	-340.16	34.218	309.37	-85.736	36.049	287.69	-351.29	1257.2	22.901	-286.8	80.146	350.55	-264.85	98.285	263.47	-208.44	857.78	-28.141
242	1.21	-306.44	1569.5	389.96	-338.18	1446.3	308.64	-404.16	1345.7	403.23	-238.33	955.66	414.52	-261.5	1380.1	445.58	-301.15	1187.1	518.96	-354.42	1063.6	544.77	-320.54	921.06	565.73	-268.47	785.49	525.8	-299.09	734.83	567.1	-307.67	1447.1	127.82	-385.3	1130.4	3.3167	-411.94	1128.6	79.283	-282.09	1005.4	-24.619	-272.44	743.83	463.84	-237.82	560.74	427.59	-188.79	669.95	420.31	-254.87	651.16	449.5	-223.19	460.24	409.64	-223.36	181.83	311.31	-214.29	271.96	390.29	-207.6	277.87	318.03	-138.32	39.545	265.08	-165.16	32.351	354.68	-239.66	561.05	99.441	-190.35	665.53	117.57	-284.22	887.27	-22.6	-261.32	648	90.175	-431.98	964.4	224.59	-209.23	1364.3	278.41	-427.17	970.76	329.46	-235.27	453.52	112.68	-259.81	352.07	170.79	-313.85	1588.3	253.03	-439.63	1139.2	278.84	-341.06	307.6	176.36	-339.49	789.67	558.62	-360.48	333.95	112.15	-500.33	94.629	223.72	-282.43	743.54	88.17	-217.75	910.36	19.468	-130.26	1611.7	269.42	-125.13	1606.5	351.04	-622.76	253.77	206.84	-562.12	246.28	157.19	-520.63	111.83	145.47	-386.56	1043.3	454.67	-469.14	71.363	200.6	-420.95	260.34	180.47	-525.8	227.62	240.45	-340.16	34.296	309.38	-85.69	36.009	287.8	-347.25	1258.3	23.158	-286.87	80.163	350.73	-264.82	98.429	263.7	-206.02	857.68	-27.513
243	1.215	-300	1571.1	389.82	-332.2	1447.5	308.56	-398.07	1346.8	403.41	-232.58	956.63	414.89	-255.28	1381.5	445.68	-292.91	1188.6	519	-344.5	1064.5	545.67	-308.75	922.58	566.19	-254.89	788.43	525.82	-284.66	736.6	567.54	-302.41	1448.2	127.82	-381.14	1131.6	3.6469	-407.54	1130	79.77	-279.26	1006.3	-24.445	-269.33	744.06	464.27	-235.95	560.79	428.06	-185.49	669.71	420.69	-251.43	651.72	449.78	-222.03	459.97	409.84	-223.52	181.46	311.41	-213.67	271.97	390.47	-207.01	277.33	317.66	-138.32	39.59	265.23	-165.08	32.309	354.83	-229.09	563.33	99.069	-181.13	668.47	116.86	-281.61	887.95	-22.481	-251.84	649.99	89.817	-425.11	965.7	224.59	-203.12	1365.8	278.16	-421.22	971.74	329.22	-223.17	456.34	112.28	-245.84	354.38	169.99	-307.37	1589.8	253.04	-433.77	1140.2	279	-327.19	309.03	175.76	-325.74	790.9	559.41	-347.25	335.47	111.89	-482.91	94.505	222.95	-275.17	745.09	87.407	-215.01	910.73	19.787	-123.91	1612.4	269.49	-118.65	1607.2	351.24	-608.3	251.64	206.77	-547.53	245.21	157.15	-503.15	112.01	144.67	-378.01	1043.6	455.95	-450.94	71.974	199.44	-406.52	260.95	180.28	-510.91	226.82	240.38	-340.16	34.425	309.39	-85.586	36.111	288.14	-343.16	1259.6	23.287	-286.88	80.269	350.88	-264.79	98.565	263.89	-203.61	857.8	-27.031
244	1.22	-293.65	1572.6	389.6	-326.31	1448.5	308.59	-391.81	1347.7	403.52	-227	957.25	415.41	-249.02	1383.1	445.55	-284.87	1189.9	519.21	-335.03	1065.4	546.5	-296.99	923.96	566.47	-242.33	790.66	526.22	-270.01	738.35	567.89	-297.05	1449.4	127.74	-377.43	1132.9	4.1113	-403.13	1131.6	80.326	-275.52	1007.4	-24.256	-263.92	744.82	464.6	-233.87	561.08	428.56	-182.51	669.3	420.82	-248.31	652.43	449.95	-220.95	459.89	409.74	-223.05	181.82	311.72	-213.21	271.98	390.76	-206.6	277.75	318.28	-138.32	39.631	265.38	-165.07	32.232	355.01	-218.53	565.56	98.658	-171.9	671.01	116.05	-278.98	888.72	-22.507	-242.5	651.83	89.538	-418.86	967.16	224.39	-197.25	1367	278.05	-415.39	973.27	328.96	-211.11	459.08	111.97	-232.26	356.65	169.22	-301.1	1591.1	252.83	-427.47	1141.2	279.25	-314.21	310.32	175.35	-312.02	791.92	559.93	-333.92	336.98	111.75	-465.45	94.162	222.39	-266.96	746.88	87.254	-212.31	911.23	20.14	-117.26	1613.2	269.41	-111.98	1608.1	351.12	-593.77	249.08	206.63	-532.72	243.79	157.01	-485.79	111.71	143.94	-369.01	1044.1	456.89	-432.77	72.375	198.74	-391.73	260.99	179.41	-495.71	225.77	240.23	-340.16	34.514	309.44	-85.541	36.111	288.29	-339.08	1260.8	23.376	-286.85	80.367	350.96	-264.7	98.665	264.04	-201.23	857.88	-26.355
245	1.225	-287.34	1573.9	389.45	-320.31	1449.6	308.58	-385.64	1348.7	403.87	-221.51	958.17	415.75	-243	1384.4	445.47	-276.9	1191.3	519.45	-325.48	1066.4	547.55	-285.27	925.2	566.99	-228.29	792.94	525.93	-255.27	740.5	568.35	-291.86	1450.3	127.97	-373.51	1133.9	4.7032	-399.02	1132.9	81.101	-272.32	1008.1	-23.976	-258.68	745.82	464.13	-231.77	561.33	428.98	-179.37	668.92	420.93	-245.36	653.04	450.14	-220.17	460	410.16	-222.51	182.03	311.96	-213.06	272.1	391.13	-206.31	278.06	319.06	-138.31	39.669	265.49	-165.04	32.186	355.15	-208.07	567.62	98.281	-162.61	673.81	115.26	-276.4	889.26	-22.389	-233.2	653.59	89.097	-413.07	968.16	223.76	-191.47	1368.1	277.99	-409.54	973.8	328.62	-199.13	461.62	111.73	-218.74	358.76	168.57	-294.47	1592.5	252.68	-421.35	1142.3	279.33	-300.48	311.02	174.93	-297.95	793.07	560.44	-320.54	338.33	111.43	-447.36	93.755	221.38	-258.68	748.4	87.327	-209.69	911.59	20.235	-110.77	1613.6	269.4	-105.71	1608.6	350.85	-579.21	245.82	206.65	-517.7	242.04	156.8	-467.99	111.18	143.38	-360.02	1044.6	457.8	-414.77	72.638	198.32	-376.99	260.95	178.72	-480.53	224.42	240.11	-340.15	34.527	309.43	-85.484	35.858	288.21	-335.09	1261.7	23.422	-286.84	80.482	350.99	-264.7	98.894	264.05	-198.97	858.01	-26.187
246	1.23	-281.1	1575.2	389.3	-314.27	1450.6	308.51	-379.88	1349.6	403.78	-215.97	959.12	416.2	-237.18	1385.8	445.31	-269.16	1192.7	519.86	-316.18	1067.4	548.28	-273.26	926.73	567.29	-214.5	795.31	525.76	-240.38	742.54	568.61	-286.38	1451.1	127.85	-370.02	1135.4	5.0043	-394.88	1134.1	81.683	-269.22	1008.7	-23.708	-254.56	746.56	463.81	-230.02	561.45	429.4	-176.23	668.4	421.57	-243.15	653.54	450.32	-219.39	460.12	410.56	-222.08	182.17	312.27	-213.06	272.24	391.63	-205.91	278.07	319.66	-138.26	39.676	265.61	-165.01	32.118	355.31	-197.67	569.85	97.924	-153.48	676.71	114.7	-274.01	889.91	-22.246	-224.15	655.37	88.772	-407.43	969.41	223.15	-185.65	1369	277.96	-403.58	974.94	328.2	-187.31	464.18	111.57	-205.23	360.45	167.72	-288.06	1593.7	252.62	-415.18	1143	279.51	-285.82	312.17	174.28	-284.17	794.54	560.79	-307.06	339.53	111.18	-429.09	93.116	220.88	-250.46	749.84	87.173	-207.02	911.94	20.423	-104.43	1614.2	269.21	-99	1609.2	350.58	-564.39	242.39	206.59	-502.48	240.08	156.81	-450.17	110.58	142.99	-350.89	1044.7	458.52	-396.16	72.735	197.53	-362.02	261.31	178.35	-464.74	222.98	239.9	-340.15	34.635	309.37	-85.378	35.7	288.27	-331.02	1262.7	23.543	-286.88	80.534	350.98	-264.55	98.899	264.14	-196.75	858.14	-25.879
